<?xml version="1.0" encoding="UTF-8"?>
<svg id="Camada_2" data-name="Camada 2" xmlns="http://www.w3.org/2000/svg" viewBox="0 0 33.29 31.99">
  <defs>
    <style>
      .cls-1 {
        fill: #fff;
      }

      .cls-2 {
        fill: #34302d;
      }
    </style>
  </defs>
  <g id="Camada_1-2" data-name="Camada 1">
    <g>
      <path class="cls-2" d="m15.05,13.83c-.43-4-3.12-7-6.02-6.69-2.89.31-4.89,3.81-4.46,7.81.43,4,3.12,7,6.02,6.69,2.89-.31,4.89-3.81,4.46-7.81Zm-4.17,5.12c-.91,0-1.64-1.03-1.64-2.3s.74-2.3,1.64-2.3,1.64,1.03,1.64,2.3c0,1.27-.73,2.3-1.64,2.3Zm8.61-4.86c1.01,0,1.82,1.15,1.82,2.56s-.82,2.56-1.82,2.56-1.82-1.15-1.82-2.56c-.01-1.42.81-2.56,1.82-2.56Zm13.6-11.07c-.49-.82-1.51-.82-2.8-.82-1.09,0-2.42,0-3.69-.44.31,1.05.84,1.94,1.63,2.69-.75-.36-1.39-.81-1.93-1.44-.6-.69-1.13-2.13-1.8-2.66-.14-.11-.38-.24-.57-.29-1.54-.43-3.63,1.53-4.78,3.31H4.76C2.13,3.37,0,5.51,0,8.13v19.1c0,2.63,2.14,4.76,4.76,4.76h19.19c2.63,0,4.76-2.14,4.76-4.76v-13.25c1.28-.65,1.91-2.61,2.61-4.84.45-1.41.91-2.87,1.54-4.04.21-.35.71-1.29.23-2.08Zm-9.13,27.14h-7.86v-1.88c2.71-.22,4.77-1.39,4.77-2.81,0-1.57-2.55-2.84-5.69-2.84s-5.69,1.27-5.69,2.84c0,1.42,2.07,2.59,4.77,2.81v1.88H4.76c-1.62,0-2.93-1.32-2.93-2.93V8.13c0-1.62,1.32-2.93,2.93-2.93h14.91c.32,0,.63-.17.8-.47.8-1.43,2.04-2.52,2.7-2.82-.03.32-.11.77-.17,1.13-.42,2.41-1.12,6.45,2.47,9.98.49.48.96.81,1.41,1v13.21c.01,1.61-1.31,2.93-2.92,2.93Z"/>
      <path class="cls-1" d="m10.88,18.95c-.91,0-1.64-1.03-1.64-2.3s.74-2.3,1.64-2.3,1.64,1.03,1.64,2.3c0,1.27-.73,2.3-1.64,2.3Zm14.6-5.94c-3.6-3.53-2.89-7.57-2.47-9.98.06-.36.14-.81.17-1.13-.66.3-1.9,1.39-2.7,2.82-.17.3-.48.47-.8.47H4.76c-1.62,0-2.93,1.32-2.93,2.93v19.1c0,1.62,1.32,2.93,2.93,2.93h9.51v-1.88c-2.71-.22-4.77-1.39-4.77-2.81,0-1.57,2.55-2.84,5.69-2.84s5.69,1.27,5.69,2.84c0,1.42-2.07,2.59-4.77,2.81v1.88h7.86c1.62,0,2.93-1.32,2.93-2.93v-13.2c-.47-.19-.93-.53-1.42-1.01Zm-14.9,8.63c-2.89.31-5.59-2.69-6.02-6.69s1.57-7.5,4.46-7.81,5.59,2.69,6.02,6.69c.44,4-1.56,7.5-4.46,7.81Zm8.91-2.44c-1.01,0-1.82-1.15-1.82-2.56s.82-2.56,1.82-2.56,1.82,1.15,1.82,2.56-.81,2.56-1.82,2.56Z"/>
    </g>
  </g>
</svg>